<svg width="128" height="30" viewBox="0 0 128 30" fill="none" xmlns="http://www.w3.org/2000/svg">
<g filter="url(#filter0_d_1_216)">
<path d="M40.6503 7.16218C42.6764 7.03541 44.6705 7.71452 46.1981 9.05155C46.3074 9.14625 46.4486 9.19584 46.5931 9.19028C46.7376 9.18473 46.8746 9.12443 46.9763 9.02162L48.3965 7.60133C48.4513 7.5465 48.4945 7.48114 48.5233 7.4092C48.5522 7.33725 48.5661 7.26021 48.5644 7.18272C48.5627 7.10523 48.5453 7.02888 48.5132 6.9583C48.4812 6.88771 48.4352 6.82434 48.378 6.77201C47.0634 5.596 45.4827 4.75712 43.7719 4.32761C42.0612 3.89809 40.2717 3.89081 38.5575 4.3064C36.8433 4.72198 35.2558 5.54797 33.9316 6.71325C32.6075 7.87853 31.5865 9.34818 30.9564 10.9957C30.3263 12.6431 30.1061 14.4191 30.3147 16.1705C30.5233 17.922 31.1544 19.5965 32.1538 21.05C33.1532 22.5034 34.4909 23.6921 36.0516 24.5138C37.6124 25.3355 39.3495 25.7655 41.1133 25.7669C43.7948 25.7749 46.3836 24.7858 48.3764 22.9916C48.4335 22.9394 48.4794 22.8761 48.5113 22.8055C48.5432 22.735 48.5605 22.6588 48.5621 22.5814C48.5636 22.504 48.5495 22.4271 48.5205 22.3553C48.4915 22.2836 48.4482 22.2185 48.3933 22.1639L46.973 20.7436C46.8715 20.6413 46.735 20.5812 46.5909 20.5753C46.4469 20.5694 46.306 20.6183 46.1965 20.7121C45.2694 21.5194 44.1632 22.0941 42.9696 22.3885C41.7761 22.6828 40.5295 22.6884 39.3334 22.4046C38.1373 22.1209 37.026 21.5561 36.0918 20.757C35.1576 19.9579 34.4274 18.9477 33.9617 17.8099C33.496 16.6722 33.3083 15.4399 33.4141 14.2151C33.5199 12.9904 33.9162 11.8085 34.5701 10.7675C35.224 9.72652 36.1167 8.85644 37.1741 8.22943C38.2315 7.60243 39.4232 7.23656 40.6503 7.16218Z" fill="white"/>
<path d="M22.7133 7.68828C21.2591 6.07621 19.3504 4.94277 17.2389 4.43742C15.1275 3.93207 12.9125 4.07855 10.886 4.85755C8.85944 5.63654 7.11662 7.01146 5.88733 8.80099C4.65804 10.5905 4 12.7106 4 14.8817C4 17.0528 4.65804 19.1729 5.88733 20.9624C7.11662 22.7519 8.85944 24.1268 10.886 24.9058C12.9125 25.6848 15.1275 25.8313 17.2389 25.326C19.3504 24.8206 21.2591 23.6872 22.7133 22.0751V24.889C22.7133 25.0409 22.7736 25.1865 22.881 25.2938C22.9884 25.4012 23.134 25.4615 23.2858 25.4615H25.0081C25.1599 25.4615 25.3055 25.4012 25.4129 25.2938C25.5203 25.1865 25.5806 25.0409 25.5806 24.889V5.01857C25.5804 4.86683 25.5201 4.72136 25.4127 4.61412C25.3054 4.50688 25.1598 4.44664 25.0081 4.44664H23.2874C23.1356 4.44664 22.99 4.50696 22.8826 4.61432C22.7753 4.72167 22.715 4.86728 22.715 5.01911V7.68828H22.7133ZM14.7456 22.7586C13.1877 22.7586 11.6648 22.2966 10.3694 21.4311C9.07411 20.5656 8.06451 19.3355 7.46831 17.8962C6.87211 16.4569 6.71609 14.8731 7.01998 13.3452C7.32386 11.8172 8.07401 10.4137 9.17556 9.31208C10.2771 8.21045 11.6806 7.46021 13.2085 7.15622C14.7365 6.85222 16.3202 7.00813 17.7595 7.60423C19.1989 8.20034 20.4291 9.20985 21.2947 10.5051C22.1603 11.8004 22.6223 13.3233 22.6225 14.8811C22.6202 16.9696 21.7895 18.9718 20.3129 20.4486C18.8362 21.9254 16.834 22.7561 14.7456 22.7586Z" fill="white"/>
<path d="M70.0706 5.01897V7.68868C68.6162 6.07647 66.7073 4.94294 64.5957 4.43756C62.484 3.93218 60.2688 4.07869 58.2421 4.85777C56.2154 5.63685 54.4724 7.01191 53.243 8.80162C52.0136 10.5913 51.3555 12.7116 51.3555 14.8829C51.3555 17.0542 52.0136 19.1745 53.243 20.9642C54.4724 22.7539 56.2154 24.129 58.2421 24.9081C60.2688 25.6871 62.484 25.8336 64.5957 25.3283C66.7073 24.8229 68.6162 23.6894 70.0706 22.0771V24.8911C70.0706 25.0429 70.1309 25.1885 70.2383 25.2959C70.3457 25.4032 70.4913 25.4635 70.6431 25.4635H72.3621C72.514 25.4635 72.6596 25.4032 72.7669 25.2959C72.8743 25.1885 72.9346 25.0429 72.9346 24.8911V5.01897C72.9346 4.86714 72.8743 4.72153 72.7669 4.61417C72.6596 4.50681 72.514 4.4465 72.3621 4.4465H70.6458C70.5704 4.44621 70.4957 4.46081 70.426 4.48944C70.3562 4.51808 70.2929 4.56019 70.2394 4.61337C70.186 4.66655 70.1436 4.72975 70.1146 4.79935C70.0856 4.86895 70.0707 4.94358 70.0706 5.01897ZM62.1023 22.759C60.5445 22.7589 59.0216 22.2968 57.7263 21.4313C56.4311 20.5657 55.4216 19.3355 54.8254 17.8962C54.2293 16.4569 54.0734 14.8732 54.3773 13.3453C54.6813 11.8173 55.4315 10.4139 56.533 9.31229C57.6346 8.21072 59.0381 7.46053 60.566 7.15658C62.0939 6.85263 63.6777 7.00857 65.1169 7.60469C66.5562 8.20081 67.7865 9.21032 68.652 10.5056C69.5176 11.8009 69.9796 13.3237 69.9797 14.8816C69.9774 16.9701 69.1468 18.9724 67.6699 20.4492C66.1931 21.926 64.1908 22.7567 62.1023 22.759Z" fill="white"/>
<path d="M113.259 25.5344C110.776 25.5322 108.371 24.6694 106.454 23.0929C104.536 21.5165 103.224 19.324 102.742 16.8889C102.259 14.4538 102.636 11.9267 103.808 9.73821C104.979 7.5497 106.874 5.83513 109.168 4.88657C111.462 3.93801 114.014 3.81414 116.389 4.53607C118.764 5.258 120.816 6.78107 122.194 8.84581C123.572 10.9106 124.192 13.3892 123.947 15.8596C123.703 18.33 122.61 20.6393 120.854 22.394C119.857 23.3918 118.673 24.183 117.369 24.7219C116.066 25.2608 114.669 25.5369 113.259 25.5344ZM113.259 6.92373C111.436 6.92317 109.669 7.55483 108.259 8.71104C106.85 9.86725 105.885 11.4765 105.529 13.2644C105.173 15.0524 105.448 16.9085 106.307 18.5164C107.166 20.1242 108.557 21.3844 110.241 22.0821C111.925 22.7797 113.799 22.8718 115.544 22.3425C117.288 21.8132 118.795 20.6953 119.808 19.1793C120.821 17.6634 121.276 15.8432 121.097 14.0289C120.918 12.2147 120.115 10.5187 118.826 9.22993C118.097 8.49632 117.229 7.91462 116.273 7.51848C115.318 7.12235 114.293 6.91964 113.259 6.9221V6.92373Z" fill="white"/>
<path d="M108.21 11.1777C107.358 12.3925 106.961 13.8692 107.09 15.3478C107.219 16.8263 107.866 18.2119 108.917 19.2604C109.967 20.309 111.354 20.9533 112.832 21.0799C114.311 21.2065 115.787 20.8073 117.001 19.9525C116.481 17.8243 115.387 15.8799 113.836 14.3323C112.286 12.7846 110.34 11.6933 108.21 11.1777Z" fill="white"/>
<path d="M114.833 12.0342C115.426 12.626 116.173 13.0395 116.989 13.2275C117.805 13.4154 118.658 13.3704 119.45 13.0975C119.085 11.7991 118.314 10.6515 117.249 9.82289C116.185 8.99422 114.884 8.52791 113.535 8.49219C113.481 9.14147 113.569 9.79486 113.793 10.4067C114.017 11.0185 114.372 11.5739 114.833 12.0342Z" fill="white"/>
<path d="M79.0039 25.5196C80.0859 25.5196 80.963 24.6425 80.963 23.5606C80.963 22.4786 80.0859 21.6016 79.0039 21.6016C77.922 21.6016 77.0449 22.4786 77.0449 23.5606C77.0449 24.6425 77.922 25.5196 79.0039 25.5196Z" fill="white"/>
<path d="M97.9422 8.9265L96.3842 9.77269C96.2422 9.85078 96.0764 9.8738 95.9185 9.83736C95.7606 9.80092 95.6216 9.70757 95.5282 9.57516C94.9661 8.73292 94.2337 8.0179 93.3782 7.47628C92.7102 7.09849 91.9558 6.90014 91.1884 6.90055C90.3346 6.86834 89.4957 7.13081 88.8126 7.64389C88.5186 7.85144 88.2792 8.12701 88.1148 8.4471C87.9504 8.76718 87.8659 9.12228 87.8684 9.4821C87.8684 10.5008 88.9818 11.4629 90.6339 12.0849L92.9069 12.936C94.4456 13.4242 95.8397 14.2854 96.9648 15.443C97.8295 16.4507 98.2883 17.7441 98.2518 19.0715C98.2738 19.9699 98.0974 20.862 97.7353 21.6844C97.3732 22.5069 96.8342 23.2394 96.1567 23.8298C94.7158 25.1051 92.8424 25.7822 90.9191 25.7229C89.1464 25.7912 87.4082 25.2202 86.0215 24.1138C84.887 23.1706 84.1001 21.8755 83.7855 20.4341C83.769 20.3463 83.7727 20.2559 83.7964 20.1697C83.82 20.0835 83.8629 20.0038 83.9219 19.9367C83.9809 19.8696 84.0544 19.8168 84.1368 19.7823C84.2193 19.7478 84.3085 19.7325 84.3977 19.7376H86.3567C86.4806 19.7343 86.6027 19.7681 86.7073 19.8346C86.8119 19.9011 86.8942 19.9973 86.9439 20.1109C87.1403 20.5716 87.3826 21.0113 87.6671 21.4234C88.0887 21.9035 88.6098 22.286 89.1943 22.5442C89.7788 22.8023 90.4125 22.93 91.0513 22.9183C92.1829 22.9013 93.2757 22.5033 94.1531 21.7886C94.5188 21.4803 94.8153 21.0983 95.0231 20.6674C95.2309 20.2366 95.3454 19.7668 95.359 19.2886C95.3632 18.909 95.3007 18.5316 95.1745 18.1736C95.0466 17.8277 94.8509 17.5107 94.5988 17.2415C94.3016 16.9288 93.9613 16.6602 93.5882 16.4437C93.1163 16.1689 92.6232 15.9323 92.1135 15.7363L89.9156 14.8983C86.7964 13.6907 84.6665 11.9254 84.6665 9.59964C84.6618 8.83594 84.837 8.08185 85.178 7.39849C85.519 6.71513 86.0162 6.12173 86.6293 5.66637C88.0171 4.57527 89.7457 4.00943 91.51 4.06868C92.8806 4.1224 94.2144 4.52766 95.3832 5.24553C96.552 5.9634 97.5166 6.96975 98.1843 8.16793C98.2195 8.23336 98.2412 8.30521 98.2481 8.37921C98.255 8.4532 98.2469 8.52782 98.2243 8.59862C98.2017 8.66941 98.165 8.73493 98.1166 8.79126C98.0681 8.8476 98.0088 8.89359 97.9422 8.9265Z" fill="white"/>
</g>
<defs>
<filter id="filter0_d_1_216" x="0" y="0" width="127.999" height="29.7669" filterUnits="userSpaceOnUse" color-interpolation-filters="sRGB">
<feFlood flood-opacity="0" result="BackgroundImageFix"/>
<feColorMatrix in="SourceAlpha" type="matrix" values="0 0 0 0 0 0 0 0 0 0 0 0 0 0 0 0 0 0 127 0" result="hardAlpha"/>
<feOffset/>
<feGaussianBlur stdDeviation="2"/>
<feComposite in2="hardAlpha" operator="out"/>
<feColorMatrix type="matrix" values="0 0 0 0 0 0 0 0 0 0 0 0 0 0 0 0 0 0 0.25 0"/>
<feBlend mode="normal" in2="BackgroundImageFix" result="effect1_dropShadow_1_216"/>
<feBlend mode="normal" in="SourceGraphic" in2="effect1_dropShadow_1_216" result="shape"/>
</filter>
</defs>
</svg>
